<?xml version="1.0" standalone="no"?>
<!DOCTYPE svg PUBLIC "-//W3C//DTD SVG 20010904//EN"
 "http://www.w3.org/TR/2001/REC-SVG-20010904/DTD/svg10.dtd">
<svg version="1.0" xmlns="http://www.w3.org/2000/svg"
 width="500.000000pt" height="500.000000pt" viewBox="0 0 500.000000 500.000000"
 preserveAspectRatio="xMidYMid meet">

<g transform="translate(0.000000,500.000000) scale(0.100000,-0.100000)"
fill="#000000" stroke="none">
<path d="M2547 3663 c-18 -5 -18 -5 0 -18 17 -13 18 -46 21 -615 1 -332 -2
-625 -6 -652 -7 -35 -6 -48 2 -45 32 10 35 71 35 689 1 339 -2 623 -5 632 -6
16 -14 18 -47 9z"/>
<path d="M2505 3640 c5 -9 1 -10 -15 -5 -16 5 -20 4 -15 -5 5 -9 1 -10 -15 -5
-17 5 -21 4 -15 -6 6 -9 3 -11 -8 -6 -10 3 -17 3 -17 -1 0 -4 -75 -32 -166
-62 -95 -32 -170 -62 -174 -71 -10 -18 -60 -519 -60 -598 0 -50 2 -55 53 -106
115 -116 457 -435 466 -435 5 0 12 28 16 63 7 71 3 1223 -5 1230 -3 2 -16 8
-29 12 -17 5 -21 4 -16 -5z m25 -644 c0 -544 -3 -616 -20 -616 -11 0 -453 429
-467 454 -7 11 -12 39 -13 61 0 54 49 524 59 554 6 22 29 31 212 87 183 56
205 60 217 46 9 -12 12 -145 12 -586z"/>
<path d="M1645 2799 c-77 -4 -150 -11 -162 -16 -11 -4 -104 -109 -206 -233
-146 -178 -181 -227 -169 -234 8 -5 84 -9 168 -10 84 -1 157 -5 161 -10 9 -10
-302 -2 -332 9 -20 7 -20 6 0 -9 34 -28 86 -36 237 -36 132 0 147 2 141 16 -4
12 -2 15 8 12 8 -3 13 -11 11 -17 -3 -15 15 -14 21 2 4 9 7 9 15 -1 16 -23
962 -42 990 -20 6 6 12 23 12 38 0 22 -17 44 -79 102 -43 40 -160 151 -259
246 l-181 172 -118 -1 c-65 -1 -181 -5 -258 -10z m253 -21 c6 -13 22 -41 34
-63 163 -284 218 -383 218 -388 0 -4 -37 -7 -83 -7 l-83 0 -33 103 c-19 56
-37 111 -41 122 -4 11 -9 25 -10 30 -1 6 -5 15 -10 20 -4 6 -15 34 -24 63 -10
28 -22 52 -28 52 -6 0 -6 -6 2 -15 7 -8 9 -15 5 -15 -4 0 -2 -7 5 -15 7 -8 9
-15 5 -15 -4 0 -2 -7 5 -15 7 -8 10 -15 7 -15 -3 0 16 -65 43 -145 28 -80 50
-148 50 -150 0 -3 -82 -5 -181 -5 l-182 0 7 38 c8 42 13 79 20 137 2 22 12 97
22 167 l17 128 78 -2 c43 -1 82 2 86 5 16 16 60 6 71 -15z m110 -55 c57 -77
276 -367 295 -390 7 -10 -4 -13 -52 -13 -33 0 -61 4 -61 9 0 6 -34 62 -75 125
-41 63 -75 117 -75 120 0 3 -29 50 -65 105 -36 54 -65 104 -65 110 0 6 9 11
20 11 12 0 40 -27 78 -77z m15 40 c18 -21 106 -121 196 -223 90 -102 171 -193
179 -202 14 -17 13 -18 -14 -18 -23 0 -38 10 -69 51 -22 28 -50 62 -62 75 -13
14 -49 57 -80 97 -32 40 -90 111 -130 159 -40 47 -73 89 -73 92 0 16 24 2 53
-31z m-373 10 c0 -10 -7 -55 -14 -100 -8 -45 -17 -99 -21 -120 -15 -106 -25
-143 -38 -143 -9 0 -9 -2 0 -8 8 -5 10 -21 6 -45 l-6 -37 -83 0 c-47 0 -84 4
-84 10 0 10 22 63 30 70 3 3 6 12 8 20 1 8 7 24 12 35 5 11 26 65 46 120 20
55 45 120 56 143 11 24 18 46 15 48 -4 5 -39 -72 -92 -203 -21 -51 -42 -93
-47 -93 -5 0 -7 -4 -3 -10 3 -5 1 -17 -4 -27 -22 -40 -41 -87 -41 -100 0 -10
-20 -13 -85 -13 -47 0 -85 2 -85 5 0 11 82 135 89 135 4 0 8 6 8 13 0 6 39 72
87 145 48 73 89 139 92 147 5 13 27 17 127 23 20 2 27 -3 27 -15z m874 -478
c3 -8 -2 -21 -10 -29 -8 -8 -21 -13 -29 -10 -15 6 -20 35 -8 47 12 12 41 7 47
-8z m-561 -9 c6 -15 -1 -26 -15 -26 -4 0 -8 9 -8 20 0 23 15 27 23 6z m143 0
c18 -19 18 -26 -1 -26 -8 0 -15 6 -15 14 0 8 -8 17 -17 19 -17 4 -17 5 0 6 10
0 25 -5 33 -13z m326 -8 c13 -13 16 -17 7 -10 -9 7 -30 17 -45 22 -24 7 -25 8
-7 9 12 1 32 -9 45 -21z m-209 -13 c-4 -15 -66 -12 -71 3 -3 10 6 13 34 10 22
-2 38 -7 37 -13z m127 0 c0 -10 -11 -15 -35 -15 -24 0 -35 5 -35 15 0 10 11
15 35 15 24 0 35 -5 35 -15z"/>
<path d="M1734 2750 c3 -14 8 -63 11 -110 7 -110 14 -207 20 -245 2 -16 4 -33
4 -37 1 -5 6 -8 11 -8 10 0 8 48 -5 140 -5 34 -8 56 -21 200 -3 36 -10 70 -16
75 -6 7 -8 1 -4 -15z"/>
<path d="M1825 2730 c3 -5 8 -10 11 -10 2 0 4 5 4 10 0 6 -5 10 -11 10 -5 0
-7 -4 -4 -10z"/>
<path d="M1368 2463 c12 -2 30 -2 40 0 9 3 -1 5 -23 4 -22 0 -30 -2 -17 -4z"/>
<path d="M3320 2370 c-47 -10 -143 -32 -215 -49 -71 -16 -168 -35 -215 -41
-91 -13 -283 -17 -315 -7 -15 5 -23 0 -30 -16 l-11 -22 96 3 c52 1 347 9 656
16 486 12 565 16 593 30 18 10 31 22 28 29 -2 6 -50 25 -108 43 -97 31 -113
33 -249 33 -104 0 -169 -6 -230 -19z"/>
<path d="M1205 2150 c-6 -10 34 -30 60 -30 26 0 26 20 0 30 -33 13 -52 13 -60
0z"/>
<path d="M1347 2074 c-7 -7 33 -64 45 -64 15 0 8 37 -10 53 -20 19 -26 20 -35
11z"/>
<path d="M1636 2030 c-93 -29 -134 -151 -83 -250 37 -74 85 -91 215 -75 59 7
74 16 52 30 -16 10 -12 95 5 101 33 13 12 24 -45 24 -33 0 -60 -4 -60 -10 0
-5 6 -10 14 -10 20 0 29 -34 22 -75 -9 -47 -29 -60 -74 -49 -66 16 -103 106
-87 210 8 59 41 94 87 94 37 -1 57 -13 82 -52 26 -40 40 -35 31 10 -3 20 -10
40 -13 43 -12 12 -116 18 -146 9z"/>
<path d="M1975 2026 c-114 -51 -129 -234 -26 -303 71 -48 174 -20 214 57 24
47 19 149 -9 187 -46 61 -120 86 -179 59z m100 -32 c46 -50 58 -193 20 -250
-18 -27 -61 -41 -84 -27 -70 44 -94 208 -40 277 27 35 72 35 104 0z"/>
<path d="M2238 2014 c21 -14 22 -22 22 -148 0 -127 -1 -134 -22 -149 -22 -15
-15 -16 94 -16 l117 -1 7 35 c8 44 0 55 -17 23 -17 -32 -28 -38 -76 -38 l-43
0 0 141 c0 123 2 144 18 155 15 12 7 13 -53 14 -66 0 -68 -1 -47 -16z"/>
<path d="M2513 2019 c15 -9 17 -27 17 -151 0 -122 -2 -143 -17 -154 -15 -11 0
-13 100 -14 93 0 117 3 117 14 0 7 3 29 6 47 l7 34 -25 -35 c-21 -31 -29 -35
-76 -38 l-52 -3 0 70 0 71 42 0 c24 0 49 -7 60 -17 17 -15 18 -14 18 27 0 41
-1 42 -18 27 -11 -10 -36 -17 -61 -17 l-42 0 3 67 c3 75 9 81 74 68 23 -4 39
-15 49 -33 l14 -27 1 38 0 37 -117 0 c-85 -1 -113 -3 -100 -11z"/>
<path d="M2909 1993 c-63 -195 -93 -265 -118 -276 l-26 -11 33 -4 c17 -2 47
-2 65 0 l32 4 -27 12 c-31 13 -32 16 -17 61 11 30 13 31 70 31 l58 0 12 -40
c11 -36 10 -42 -7 -55 -17 -13 -12 -14 56 -15 l75 0 -27 23 c-18 16 -41 63
-78 165 -41 111 -56 142 -70 142 -12 0 -22 -12 -31 -37z m37 -90 c10 -32 20
-64 22 -70 2 -9 -12 -13 -48 -13 -38 0 -51 4 -47 13 2 6 12 38 21 70 9 31 20
57 24 57 5 0 17 -26 28 -57z"/>
<path d="M3153 2017 c15 -12 17 -33 17 -154 0 -135 -1 -140 -22 -151 -19 -9
-9 -11 52 -11 61 0 71 2 53 11 -20 9 -23 19 -23 65 0 67 14 68 58 4 34 -50 81
-81 123 -81 20 0 18 4 -18 35 -39 33 -90 102 -82 109 2 2 18 11 36 20 61 31
71 102 20 140 -23 17 -45 21 -130 24 -89 2 -100 1 -84 -11z m151 -8 c76 -35
34 -159 -54 -159 -19 0 -20 6 -20 85 0 84 0 85 25 85 13 0 35 -5 49 -11z"/>
<path d="M3478 2013 c21 -15 22 -22 22 -149 l0 -133 -27 -15 c-27 -15 -27 -15
35 -16 67 0 76 5 37 20 -25 9 -25 11 -25 130 0 66 2 120 5 120 2 0 46 -62 97
-137 l93 -138 5 152 c3 83 7 153 10 156 3 2 14 9 25 15 16 9 8 11 -45 11 -53
0 -60 -2 -40 -10 13 -6 28 -15 32 -22 10 -16 10 -177 1 -177 -5 0 -39 48 -77
105 l-69 105 -51 -1 c-49 0 -50 -1 -28 -16z"/>
<path d="M1132 1991 c-8 -5 -12 -21 -10 -37 3 -26 7 -29 38 -29 29 0 36 4 38
23 6 41 -31 65 -66 43z"/>
<path d="M883 1903 c-15 -6 -17 -43 -3 -43 12 0 24 25 18 38 -1 5 -9 7 -15 5z"/>
<path d="M1093 1883 c-40 -36 -85 -104 -79 -119 4 -11 14 -13 41 -8 31 5 35 4
35 -15 0 -19 5 -21 70 -21 64 0 70 2 70 21 0 18 4 20 31 14 48 -11 53 11 17
63 -51 74 -63 82 -117 82 -32 0 -55 -6 -68 -17z m72 -26 c17 1 39 3 50 5 32 5
33 -39 1 -52 -29 -10 -32 -20 -14 -38 17 -17 -34 -34 -67 -22 -21 8 -24 14
-19 35 5 21 3 25 -15 25 -17 0 -21 6 -21 31 0 29 2 31 28 23 15 -4 41 -7 57
-7z"/>
<path d="M1432 1868 c-7 -9 -17 -31 -22 -49 l-10 -33 26 25 c16 17 25 35 22
49 -3 21 -5 21 -16 8z"/>
<path d="M925 1730 c-7 -11 36 -80 50 -80 6 0 16 4 23 9 10 6 4 17 -23 44 -41
41 -41 41 -50 27z"/>
<path d="M1147 1618 c-15 -5 -25 -14 -21 -19 9 -15 40 -10 65 11 22 18 23 19
4 19 -11 0 -32 -5 -48 -11z"/>
<path d="M2693 1515 c0 -22 2 -30 4 -17 2 12 2 30 0 40 -3 9 -5 -1 -4 -23z"/>
<path d="M3043 1515 c0 -22 2 -30 4 -17 2 12 2 30 0 40 -3 9 -5 -1 -4 -23z"/>
<path d="M2102 1505 c0 -16 2 -22 5 -12 2 9 2 23 0 30 -3 6 -5 -1 -5 -18z"/>
<path d="M2392 1510 c0 -14 2 -19 5 -12 2 6 2 18 0 25 -3 6 -5 1 -5 -13z"/>
<path d="M2432 1510 c0 -14 2 -19 5 -12 2 6 2 18 0 25 -3 6 -5 1 -5 -13z"/>
<path d="M2882 1505 c0 -16 2 -22 5 -12 2 9 2 23 0 30 -3 6 -5 -1 -5 -18z"/>
<path d="M3262 1505 c0 -16 2 -22 5 -12 2 9 2 23 0 30 -3 6 -5 -1 -5 -18z"/>
<path d="M1791 1504 c0 -11 3 -14 6 -6 3 7 2 16 -1 19 -3 4 -6 -2 -5 -13z"/>
<path d="M2530 1480 c-9 -6 -10 -10 -3 -10 6 0 15 5 18 10 8 12 4 12 -15 0z"/>
</g>
</svg>
